[Header]
FileType HTR
DataType HTRS
FileVersion 1
NumSegments 22
NumFrames 8
DataFrameRate 24
EulerRotationOrder ZYX
CalibrationUnits mm
RotationUnits Degrees
GlobalAxisofGravity Y
BoneLengthAxis Y
ScaleFactor 1.0
[SegmentNames&Hierarchy]
reference	GLOBAL
Hips	reference
Spine	Hips
Spine1	Spine
Neck	Spine1
Head	Neck
LeftShoulder	Spine1
LeftArm	LeftShoulder
LeftForeArm	LeftArm
LeftHand	LeftForeArm
RightShoulder	Spine1
RightArm	RightShoulder
RightForeArm	RightArm
RightHand	RightForeArm
LeftUpLeg	Hips
LeftLeg	LeftUpLeg
LeftFoot	LeftLeg
LeftToeBase	LeftFoot
RightUpLeg	Hips
RightLeg	RightUpLeg
RightFoot	RightLeg
RightToeBase	RightFoot
[BasePosition]
reference	0	0	0	0	0	0	1
Hips	0	0	0	0	0	0	1
Spine	0	0	0	0	-0	90	1
Spine1	0	0	0	0	0	0	1
Neck	0	0	0	-7.352430803	-7.352430803	90	1
Head	0	0	0	0	-0	90	1
LeftShoulder	0	0	0	0	0	0	1
LeftArm	0	0	0	0	0	0	1
LeftForeArm	0	0	0	0	0	0	1
LeftHand	0	0	0	0	0	0	1
RightShoulder	0	0	0	0	-0	180	1
RightArm	0	0	0	0	-0	180	1
RightForeArm	0	0	0	0	-0	180	1
RightHand	0	0	0	0	-0	180	1
LeftUpLeg	0	0	0	0	-0	-90	1
LeftLeg	0	0	0	0	-0	-90	1
LeftFoot	0	0	0	66.57150701	-66.57150701	-90	1
LeftToeBase	0	0	0	0	-90	0	1
RightUpLeg	0	0	0	0	-0	-90	1
RightLeg	0	0	0	0	-0	-90	1
RightFoot	0	0	0	66.57150701	-66.57150701	-90	1
RightToeBase	0	0	0	0	-90	0	1
[reference]
30	0	0	0	0	-0	0	1.0
31	0	0	0	0	-0	0	1.0
32	0	0	0	0	-0	0	1.0
33	0	0	0	0	-0	0	1.0
34	0	0	0	0	-0	0	1.0
35	0	0	0	0	-0	0	1.0
36	0	0	0	0	-0	0	1.0
37	0	0	0	0	-0	0	1.0
[Hips]
30	1.497807384	8.513601303	0.9080491066	0.941054821	-98.36381531	2.267199516	1.0
31	1.575052857	8.463550568	0.9113311172	4.059524536	-98.76311493	1.211975098	1.0
32	1.676389575	8.336856842	0.9143407345	6.029675961	-99.70470428	1.99196279	1.0
33	1.791489363	8.116832733	0.917047143	10.01003742	-100.5778961	1.221095443	1.0
34	1.811581969	7.798435688	0.9194190502	15.75916481	-100.6229477	-0.5547771454	1.0
35	1.819041848	7.419513702	0.9214258194	19.02618217	-99.68177032	-1.856211305	1.0
36	1.819602489	7.181328773	0.9230363369	17.97332954	-98.3637085	-0.6222870946	1.0
37	1.814460039	7.270030022	0.9242197275	18.18673706	-98.48571777	-1.955581665	1.0
[Spine]
30	0	0.7478299737	0	-5.494445801	-0.2499340475	-88.55419922	1.0
31	0	0.7478299737	0	-3.794146299	0.1997716129	-88.37861633	1.0
32	0	0.7478299737	0	-0.8515300751	0.9390864968	-88.52771759	1.0
33	0	0.7478299737	0	1.289034009	1.594348669	-88.97289276	1.0
34	0	0.7478299737	0	1.848637342	1.873072147	-89.24485779	1.0
35	0	0.7478299737	0	1.870726466	1.418744326	-88.96203613	1.0
36	0	0.7478299737	0	0.864487052	0.4450639188	-88.9303894	1.0
37	0	0.7478299737	0	-0.07221060246	0.8315313458	-89.03855133	1.0
[Spine1]
30	0	2.049309969	0	4.988283157	-0.02101186104	-1.94009304	1.0
31	0	2.049309969	0	2.774989367	0.102973111	-2.215704918	1.0
32	0	2.049309969	0	-0.7418426275	0.2996637821	-2.004454613	1.0
33	0	2.049309969	0	-4.464037418	0.4511495233	-2.154195547	1.0
34	0	2.049309969	0	-7.510073662	0.4632865191	-2.532260418	1.0
35	0	2.049309969	0	-7.289903641	0.2833862603	-3.101487875	1.0
36	0	2.049309969	0	-4.28351593	0.06624320894	-2.214049578	1.0
37	0	2.049309969	0	-4.841106415	0.1784630716	-2.324462891	1.0
[Neck]
30	0	2.231709957	0	-2.473679066	10.2977066	-87.2895813	1.0
31	0	2.231709957	0	-4.37498188	10.34403801	-87.11750031	1.0
32	0	2.231709957	0	-8.063649178	10.32231331	-86.95333862	1.0
33	0	2.231709957	0	-12.58746624	10.59549618	-86.9192276	1.0
34	0	2.231709957	0	-15.99823093	10.39080429	-87.33563995	1.0
35	0	2.231709957	0	-19.42450142	10.4086113	-87.33083344	1.0
36	0	2.231709957	0	-22.8329525	10.50236607	-87.25653839	1.0
37	0	2.231709957	0	-18.48974609	10.3148737	-86.92894745	1.0
[Head]
30	0	1.413589954	0.1823999882	-16.72549438	3.035502911	-91.0440979	1.0
31	0	1.413589954	0.1823999882	-16.94116974	3.036427975	-91.62667847	1.0
32	0	1.413589954	0.1823999882	-15.59826851	2.958979607	-91.76276398	1.0
33	0	1.413589954	0.1823999882	-13.07834911	3.187428236	-91.78340149	1.0
34	0	1.413589954	0.1823999882	-11.90600777	2.932435989	-90.86491394	1.0
35	0	1.413589954	0.1823999882	-11.61136627	2.884623051	-90.84765625	1.0
36	0	1.413589954	0.1823999882	-9.563956261	2.924948454	-90.80045319	1.0
37	0	1.413589954	0.1823999882	-9.271307945	2.775075674	-90.34004211	1.0
[LeftShoulder]
30	0.3649300039	1.825889945	-0.04271000251	-11.69445896	-8.543327332	4.050190926	1.0
31	0.3649300039	1.825889945	-0.04271000251	-11.61685371	-8.50122261	4.32803154	1.0
32	0.3649300039	1.825889945	-0.04271000251	-11.48936462	-8.01646328	4.794091702	1.0
33	0.3649300039	1.825889945	-0.04271000251	-11.54746628	-7.194774151	5.38301897	1.0
34	0.3649300039	1.825889945	-0.04271000251	-12.79555511	-6.778123856	5.261944771	1.0
35	0.3649300039	1.825889945	-0.04271000251	-14.89032078	-6.345335484	4.753823757	1.0
36	0.3649300039	1.825889945	-0.04271000251	-16.01716614	-6.507308006	5.436655045	1.0
37	0.3649300039	1.825889945	-0.04271000251	-16.47568321	-7.198012352	5.949524403	1.0
[LeftArm]
30	1.24003005	0	0	42.80276108	8.025203705	-81.97653961	1.0
31	1.24003005	0	0	42.63471603	7.99903965	-82.09725189	1.0
32	1.24003005	0	0	41.67226028	8.298830032	-82.16944885	1.0
33	1.24003005	0	0	38.94377518	8.938801765	-81.88569641	1.0
34	1.24003005	0	0	38.41909027	9.522123337	-80.39581299	1.0
35	1.24003005	0	0	40.87922668	6.712877274	-78.36787415	1.0
36	1.24003005	0	0	37.47652435	1.644956231	-75.38694763	1.0
37	1.24003005	0	0	36.16169357	-1.803346634	-68.86768341	1.0
[LeftForeArm]
30	2.847419977	0	0	-13.39651203	-14.65395355	-2.580930233	1.0
31	2.847419977	0	0	-13.79161263	-16.19312096	-1.897219419	1.0
32	2.847419977	0	0	-13.19946957	-18.74651337	-1.485028028	1.0
33	2.847419977	0	0	-10.90003967	-22.00266457	-1.870417356	1.0
34	2.847419977	0	0	-11.05858517	-25.22291183	-1.70417738	1.0
35	2.847419977	0	0	-11.61986923	-28.27419853	0.646030426	1.0
36	2.847419977	0	0	-11.28767872	-38.16854095	3.18938303	1.0
37	2.847419977	0	0	-16.21763802	-54.27879715	12.56158638	1.0
[LeftHand]
30	2.258270025	0	0	-13.55917835	-6.069900036	-3.193958282	1.0
31	2.258270025	0	0	-13.87259007	-6.487933636	-3.335385084	1.0
32	2.258270025	0	0	-13.28633881	-7.389139175	-2.453749895	1.0
33	2.258270025	0	0	-11.20403957	-8.562052727	-0.7996098399	1.0
34	2.258270025	0	0	-11.54320812	-11.0089159	1.078034401	1.0
35	2.258270025	0	0	-12.06764603	-11.84386349	5.892025471	1.0
36	2.258270025	0	0	-10.98181248	-13.83945274	6.536736965	1.0
37	2.258270025	0	0	-10.77195454	-13.27494335	8.681728363	1.0
[RightShoulder]
30	-0.3646599948	1.825889945	-0.04271000251	-8.687710762	8.542595863	177.5030823	1.0
31	-0.3646599948	1.825889945	-0.04271000251	-8.648113251	8.742160797	177.2132874	1.0
32	-0.3646599948	1.825889945	-0.04271000251	-8.775533676	8.733045578	176.9166107	1.0
33	-0.3646599948	1.825889945	-0.04271000251	-9.021826744	8.877568245	176.7784729	1.0
34	-0.3646599948	1.825889945	-0.04271000251	-10.38456154	9.134535789	176.9350586	1.0
35	-0.3646599948	1.825889945	-0.04271000251	-12.38040543	9.306724548	177.2103882	1.0
36	-0.3646599948	1.825889945	-0.04271000251	-14.32651234	9.305234909	176.3818512	1.0
37	-0.3646599948	1.825889945	-0.04271000251	-14.61060715	10.18158913	175.8462677	1.0
[RightArm]
30	-1.24003005	0	0	47.69839478	-4.955985069	-97.10945892	1.0
31	-1.24003005	0	0	47.55163574	-4.994579792	-97.06067657	1.0
32	-1.24003005	0	0	47.61328888	-5.230127335	-97.09880066	1.0
33	-1.24003005	0	0	47.76577759	-5.661547661	-97.4688797	1.0
34	-1.24003005	0	0	49.1439209	-6.261641502	-97.55013275	1.0
35	-1.24003005	0	0	51.48200989	-3.426401615	-97.38523102	1.0
36	-1.24003005	0	0	51.77739716	1.777227402	-97.57036591	1.0
37	-1.24003005	0	0	49.82309341	4.973540783	-100.2487793	1.0
[RightForeArm]
30	-2.847419977	0	0	0.1228194833	16.38511467	178.014267	1.0
31	-2.847419977	0	0	0.3888270259	17.92353821	177.6745758	1.0
32	-2.847419977	0	0	0.932972908	20.28863907	177.2525635	1.0
33	-2.847419977	0	0	1.139292836	22.995224	176.4514465	1.0
34	-2.847419977	0	0	-1.005499244	24.00564003	174.0479126	1.0
35	-2.847419977	0	0	-3.75317955	22.54642487	170.8693848	1.0
36	-2.847419977	0	0	-6.682204723	24.45647049	165.7585449	1.0
37	-2.847419977	0	0	-13.20873833	34.31322098	154.3393097	1.0
[RightHand]
30	-2.258270025	0	0	0.2408102751	8.126243591	177.6306458	1.0
31	-2.258270025	0	0	0.5640900135	8.479961395	177.4203033	1.0
32	-2.258270025	0	0	1.1139853	8.875621796	176.0042877	1.0
33	-2.258270025	0	0	1.382177234	9.448908806	174.2086792	1.0
34	-2.258270025	0	0	-0.4047519267	10.40228462	172.7437134	1.0
35	-2.258270025	0	0	-2.86886692	9.917337418	169.2967529	1.0
36	-2.258270025	0	0	-4.747075081	9.214301109	166.1685181	1.0
37	-2.258270025	0	0	-6.500682354	10.96363258	166.1555939	1.0
[LeftUpLeg]
30	0.9119900465	0	0	-7.912940979	-4.363293171	92.53363037	1.0
31	0.9119900465	0	0	-13.75084496	-3.464744091	93.14823914	1.0
32	0.9119900465	0	0	-21.02783966	-2.249777555	94.61882019	1.0
33	0.9119900465	0	0	-29.96225166	-0.2405890822	96.04840851	1.0
34	0.9119900465	0	0	-40.07116699	2.746961355	95.11732483	1.0
35	0.9119900465	0	0	-48.07691193	3.95136714	92.73892975	1.0
36	0.9119900465	0	0	-51.7423439	0.6289864182	92.36965179	1.0
37	0.9119900465	0	0	-48.71033096	-3.467603683	93.08081818	1.0
[LeftLeg]
30	0	-4.371409893	0	22.94049835	-3.688365459	85.32561493	1.0
31	0	-4.371409893	0	29.97932434	-3.932368279	82.90873718	1.0
32	0	-4.371409893	0	38.78163147	-3.192512512	78.52873993	1.0
33	0	-4.371409893	0	48.81295395	-1.710945129	73.68275452	1.0
34	0	-4.371409893	0	60.65675735	-1.388517022	69.07912445	1.0
35	0	-4.371409893	0	72.37374115	-0.9532030821	67.44236755	1.0
36	0	-4.371409893	0	78.95980072	-0.1552668661	69.30613708	1.0
37	0	-4.371409893	0	76.34960938	0.131293416	73.21881104	1.0
[LeftFoot]
30	0	-3.918009996	0	-87.42262268	112.8179092	-26.85290909	1.0
31	0	-3.918009996	0	-85.80429077	112.2842712	-23.36061096	1.0
32	0	-3.918009996	0	-82.48258972	112.1625366	-17.84612656	1.0
33	0	-3.918009996	0	-79.56404877	111.8548355	-12.69924927	1.0
34	0	-3.918009996	0	-75.40498352	112.3647919	-5.893150806	1.0
35	0	-3.918009996	0	-72.88921356	112.6543579	-0.56387043	1.0
36	0	-3.918009996	0	-69.70027924	112.9032822	4.346190453	1.0
37	0	-3.918009996	0	-68.33105469	113.4859314	5.253753662	1.0
[LeftToeBase]
30	0	-0.5927900076	1.367989898	0	0	0	1.0
31	0	-0.5927900076	1.367989898	0	0	0	1.0
32	0	-0.5927900076	1.367989898	0	0	0	1.0
33	0	-0.5927900076	1.367989898	0	0	0	1.0
34	0	-0.5927900076	1.367989898	0	0	0	1.0
35	0	-0.5927900076	1.367989898	0	0	0	1.0
36	0	-0.5927900076	1.367989898	0	0	0	1.0
37	0	-0.5927900076	1.367989898	0	0	0	1.0
[RightUpLeg]
30	-0.9119900465	0	0	-3.511696577	-12.52527714	92.97420502	1.0
31	-0.9119900465	0	0	-10.62459755	-17.6498642	94.90267944	1.0
32	-0.9119900465	0	0	-19.52699852	-19.65492249	97.96749878	1.0
33	-0.9119900465	0	0	-30.15372276	-18.53355217	102.1055603	1.0
34	-0.9119900465	0	0	-42.18138123	-17.3658371	104.8660889	1.0
35	-0.9119900465	0	0	-51.85971069	-17.70492935	107.511795	1.0
36	-0.9119900465	0	0	-54.91382599	-17.32530022	109.4206009	1.0
37	-0.9119900465	0	0	-49.8878479	-14.81367111	107.8301315	1.0
[RightLeg]
30	0	-4.371409893	0	14.16645145	-2.269886255	85.96031952	1.0
31	0	-4.371409893	0	22.12807846	-0.6208984852	83.05163574	1.0
32	0	-4.371409893	0	32.08162689	4.225186825	80.70591736	1.0
33	0	-4.371409893	0	42.77650452	5.539719105	74.51924896	1.0
34	0	-4.371409893	0	56.12503815	7.770665169	70.31645966	1.0
35	0	-4.371409893	0	68.89649963	12.82129097	70.31304932	1.0
36	0	-4.371409893	0	74.35028839	15.408638	70.73744965	1.0
37	0	-4.371409893	0	70.12407684	13.66908455	68.80393982	1.0
[RightFoot]
30	0	-3.918009996	0	21.65539551	58.70155334	75.33166504	1.0
31	0	-3.918009996	0	23.30502701	58.84551239	79.98073578	1.0
32	0	-3.918009996	0	25.37516785	57.47958374	84.99172974	1.0
33	0	-3.918009996	0	34.49310684	55.09006119	96.85426331	1.0
34	0	-3.918009996	0	43.04707336	52.88746643	107.1320953	1.0
35	0	-3.918009996	0	43.89115906	50.87973022	108.1324844	1.0
36	0	-3.918009996	0	36.79873276	50.31921387	102.8337936	1.0
37	0	-3.918009996	0	31.94526482	49.7456398	98.98203278	1.0
[RightToeBase]
30	0	-0.5927900076	1.367989898	0	0	0	1.0
31	0	-0.5927900076	1.367989898	0	0	0	1.0
32	0	-0.5927900076	1.367989898	0	0	0	1.0
33	0	-0.5927900076	1.367989898	0	0	0	1.0
34	0	-0.5927900076	1.367989898	0	0	0	1.0
35	0	-0.5927900076	1.367989898	0	0	0	1.0
36	0	-0.5927900076	1.367989898	0	0	0	1.0
37	0	-0.5927900076	1.367989898	0	0	0	1.0
[EndOfFile]
